<svg width="1920" height="1080" viewBox="0 0 1920 1080" fill="none" xmlns="http://www.w3.org/2000/svg">
<rect width="1920" height="1080" fill="black"/>
<path d="M353.642 492V488.318C353.642 487.273 353.847 486.205 354.256 485.114C354.665 484.023 355.205 482.994 355.875 482.028C356.545 481.062 357.273 480.256 358.057 479.608L361.261 481.5C360.625 482.5 360.102 483.545 359.693 484.636C359.295 485.727 359.097 486.943 359.097 488.284V492H353.642ZM362.25 492V488.318C362.25 487.273 362.455 486.205 362.864 485.114C363.273 484.023 363.813 482.994 364.483 482.028C365.153 481.062 365.881 480.256 366.665 479.608L369.869 481.5C369.233 482.5 368.71 483.545 368.301 484.636C367.903 485.727 367.705 486.943 367.705 488.284V492H362.25ZM373.218 500.64H413.442V505.776H373.218V500.64ZM389.97 504H396.354V520.272H389.97V504ZM393.234 477.312C396.402 477.312 399.186 477.728 401.586 478.56C404.018 479.36 405.906 480.512 407.25 482.016C408.594 483.52 409.266 485.28 409.266 487.296C409.266 489.344 408.594 491.12 407.25 492.624C405.906 494.096 404.018 495.248 401.586 496.08C399.186 496.88 396.402 497.28 393.234 497.28C390.066 497.28 387.266 496.88 384.834 496.08C382.434 495.248 380.546 494.096 379.17 492.624C377.826 491.12 377.154 489.344 377.154 487.296C377.154 485.28 377.826 483.52 379.17 482.016C380.546 480.512 382.434 479.36 384.834 478.56C387.266 477.728 390.066 477.312 393.234 477.312ZM393.186 482.352C391.266 482.352 389.586 482.544 388.146 482.928C386.738 483.312 385.65 483.872 384.882 484.608C384.114 485.312 383.73 486.208 383.73 487.296C383.73 488.352 384.114 489.248 384.882 489.984C385.65 490.72 386.738 491.28 388.146 491.664C389.586 492.016 391.266 492.192 393.186 492.192C395.17 492.192 396.866 492.016 398.274 491.664C399.682 491.28 400.77 490.72 401.538 489.984C402.338 489.248 402.738 488.352 402.738 487.296C402.738 486.208 402.338 485.312 401.538 484.608C400.77 483.872 399.682 483.312 398.274 482.928C396.866 482.544 395.17 482.352 393.186 482.352ZM447.95 475.728H454.382V520.32H447.95V475.728ZM419.774 504.768H423.71C426.334 504.768 428.814 504.736 431.15 504.672C433.486 504.576 435.774 504.432 438.014 504.24C440.254 504.016 442.542 503.696 444.878 503.28L445.55 508.416C441.966 509.056 438.43 509.488 434.942 509.712C431.486 509.904 427.742 510 423.71 510H419.774V504.768ZM419.678 479.52H440.654V496.752H426.254V506.736H419.774V491.712H434.174V484.656H419.678V479.52ZM466.475 487.776H497.291V492.864H466.475V487.776ZM461.531 497.472H501.755V502.56H461.531V497.472ZM466.475 477.36H472.859V490.32H466.475V477.36ZM466.091 514.176H497.531V519.312H466.091V514.176ZM466.091 506.064H472.475V515.568H466.091V506.064ZM514.509 511.227L514.321 513.102C514.173 514.602 513.889 516.097 513.469 517.585C513.06 519.085 512.628 520.443 512.173 521.659C511.73 522.875 511.372 523.83 511.099 524.523H506.395C506.565 523.852 506.798 522.915 507.094 521.71C507.389 520.517 507.668 519.176 507.929 517.688C508.19 516.199 508.355 514.682 508.423 513.136L508.509 511.227H514.509ZM560.167 475.728H566.551V520.32H560.167V475.728ZM542.599 478.848C544.871 478.848 546.887 479.504 548.647 480.816C550.407 482.096 551.783 483.936 552.775 486.336C553.799 488.704 554.311 491.504 554.311 494.736C554.311 498 553.799 500.832 552.775 503.232C551.783 505.6 550.407 507.44 548.647 508.752C546.887 510.032 544.871 510.672 542.599 510.672C540.359 510.672 538.359 510.032 536.599 508.752C534.839 507.44 533.447 505.6 532.423 503.232C531.431 500.832 530.935 498 530.935 494.736C530.935 491.504 531.431 488.704 532.423 486.336C533.447 483.936 534.839 482.096 536.599 480.816C538.359 479.504 540.359 478.848 542.599 478.848ZM542.599 484.656C541.511 484.656 540.551 485.04 539.719 485.808C538.887 486.576 538.231 487.712 537.751 489.216C537.303 490.688 537.079 492.528 537.079 494.736C537.079 496.912 537.303 498.768 537.751 500.304C538.231 501.808 538.887 502.944 539.719 503.712C540.551 504.48 541.511 504.864 542.599 504.864C543.719 504.864 544.695 504.48 545.527 503.712C546.359 502.944 546.999 501.808 547.447 500.304C547.927 498.768 548.167 496.912 548.167 494.736C548.167 492.528 547.927 490.688 547.447 489.216C546.999 487.712 546.359 486.576 545.527 485.808C544.695 485.04 543.719 484.656 542.599 484.656ZM594.84 480.336H600.072V483.12C600.072 485.936 599.608 488.592 598.68 491.088C597.784 493.584 596.408 495.776 594.552 497.664C592.728 499.52 590.408 500.912 587.592 501.84L584.28 496.896C586.744 496.064 588.744 494.928 590.28 493.488C591.848 492.048 593 490.432 593.736 488.64C594.472 486.816 594.84 484.976 594.84 483.12V480.336ZM596.088 480.336H601.272V483.12C601.272 484.848 601.624 486.576 602.328 488.304C603.032 490 604.136 491.536 605.64 492.912C607.176 494.256 609.128 495.312 611.496 496.08L608.28 501.072C605.496 500.176 603.208 498.816 601.416 496.992C599.624 495.168 598.28 493.072 597.384 490.704C596.52 488.304 596.088 485.776 596.088 483.12V480.336ZM585.96 478.416H610.008V483.504H585.96V478.416ZM613.512 475.824H619.896V502.56H613.512V475.824ZM618.168 486.528H625.8V491.808H618.168V486.528ZM590.232 504.528H619.896V520.272H613.512V509.616H590.232V504.528ZM629.061 498.48H669.285V503.52H629.061V498.48ZM633.957 514.368H664.773V519.504H633.957V514.368ZM633.957 506.496H640.341V516H633.957V506.496ZM649.173 477.12C652.405 477.12 655.221 477.488 657.621 478.224C660.053 478.96 661.941 480.016 663.285 481.392C664.629 482.768 665.301 484.384 665.301 486.24C665.301 488.128 664.629 489.76 663.285 491.136C661.941 492.512 660.053 493.568 657.621 494.304C655.221 495.04 652.405 495.408 649.173 495.408C645.973 495.408 643.157 495.04 640.725 494.304C638.325 493.568 636.453 492.512 635.109 491.136C633.765 489.76 633.093 488.128 633.093 486.24C633.093 484.384 633.765 482.768 635.109 481.392C636.453 480.016 638.325 478.96 640.725 478.224C643.157 477.488 645.973 477.12 649.173 477.12ZM649.173 482.16C647.221 482.16 645.525 482.32 644.085 482.64C642.645 482.96 641.557 483.424 640.821 484.032C640.085 484.608 639.717 485.344 639.717 486.24C639.717 487.136 640.085 487.888 640.821 488.496C641.557 489.104 642.645 489.568 644.085 489.888C645.525 490.208 647.221 490.368 649.173 490.368C651.189 490.368 652.901 490.208 654.309 489.888C655.717 489.568 656.789 489.104 657.525 488.496C658.293 487.888 658.677 487.136 658.677 486.24C658.677 485.344 658.293 484.608 657.525 484.032C656.789 483.424 655.717 482.96 654.309 482.64C652.901 482.32 651.189 482.16 649.173 482.16ZM694.694 478.128H699.974V482.064C699.974 485.04 699.51 487.84 698.582 490.464C697.686 493.088 696.31 495.376 694.454 497.328C692.598 499.28 690.214 500.752 687.302 501.744L683.942 496.608C686.502 495.808 688.566 494.656 690.134 493.152C691.702 491.648 692.854 489.936 693.59 488.016C694.326 486.096 694.694 484.112 694.694 482.064V478.128ZM695.99 478.128H701.174V481.776C701.174 483.728 701.51 485.616 702.182 487.44C702.854 489.232 703.926 490.832 705.398 492.24C706.87 493.616 708.774 494.688 711.11 495.456L707.798 500.448C705.078 499.488 702.838 498.096 701.078 496.272C699.35 494.448 698.07 492.304 697.238 489.84C696.406 487.344 695.99 484.656 695.99 481.776V478.128ZM715.142 475.824H721.574V501.84H715.142V475.824ZM706.502 502.992C711.206 502.992 714.918 503.76 717.638 505.296C720.358 506.8 721.718 508.896 721.718 511.584C721.718 514.336 720.358 516.464 717.638 517.968C714.918 519.504 711.206 520.272 706.502 520.272C701.798 520.272 698.086 519.504 695.366 517.968C692.646 516.464 691.286 514.336 691.286 511.584C691.286 508.896 692.646 506.8 695.366 505.296C698.086 503.76 701.798 502.992 706.502 502.992ZM706.502 507.936C704.582 507.936 702.966 508.064 701.654 508.32C700.342 508.576 699.334 508.992 698.63 509.568C697.958 510.112 697.622 510.784 697.622 511.584C697.622 512.416 697.958 513.12 698.63 513.696C699.334 514.24 700.342 514.656 701.654 514.944C702.966 515.2 704.582 515.328 706.502 515.328C708.422 515.328 710.038 515.2 711.35 514.944C712.662 514.656 713.654 514.24 714.326 513.696C714.998 513.12 715.334 512.416 715.334 511.584C715.334 510.784 714.998 510.112 714.326 509.568C713.654 508.992 712.662 508.576 711.35 508.32C710.038 508.064 708.422 507.936 706.502 507.936ZM707.03 483.888H716.102V489.072H707.03V483.888ZM749.939 482.304H761.267V487.392H749.939V482.304ZM749.939 491.472H761.459V496.512H749.939V491.472ZM730.355 478.416H736.691V484.56H745.139V478.416H751.427V500.352H730.355V478.416ZM736.691 489.504V495.264H745.139V489.504H736.691ZM735.395 504.288H765.731V520.272H759.299V509.376H735.395V504.288ZM759.299 475.824H765.731V502.32H759.299V475.824ZM812.26 475.824H818.644V520.272H812.26V475.824ZM817.204 493.152H825.028V498.432H817.204V493.152ZM783.556 482.352H809.476V487.44H783.556V482.352ZM796.612 489.984C798.756 489.984 800.676 490.448 802.372 491.376C804.068 492.272 805.396 493.504 806.356 495.072C807.348 496.64 807.844 498.464 807.844 500.544C807.844 502.624 807.348 504.464 806.356 506.064C805.396 507.632 804.068 508.88 802.372 509.808C800.708 510.704 798.788 511.152 796.612 511.152C794.468 511.152 792.532 510.704 790.804 509.808C789.108 508.88 787.764 507.632 786.772 506.064C785.812 504.464 785.332 502.624 785.332 500.544C785.332 498.464 785.812 496.64 786.772 495.072C787.764 493.504 789.108 492.272 790.804 491.376C792.532 490.448 794.468 489.984 796.612 489.984ZM796.612 495.168C795.588 495.168 794.692 495.376 793.924 495.792C793.156 496.208 792.548 496.816 792.1 497.616C791.652 498.416 791.428 499.392 791.428 500.544C791.428 501.664 791.652 502.64 792.1 503.472C792.548 504.272 793.156 504.896 793.924 505.344C794.692 505.76 795.588 505.968 796.612 505.968C797.604 505.968 798.484 505.76 799.252 505.344C800.02 504.896 800.628 504.272 801.076 503.472C801.524 502.64 801.748 501.664 801.748 500.544C801.748 499.392 801.524 498.416 801.076 497.616C800.628 496.816 800.02 496.208 799.252 495.792C798.484 495.376 797.604 495.168 796.612 495.168ZM793.348 476.544H799.78V484.32H793.348V476.544ZM861.12 492.576H868.944V497.856H861.12V492.576ZM856.32 475.728H862.752V520.176H856.32V475.728ZM829.296 480H835.632V507.648H829.296V480ZM829.296 504.048H833.088C836.256 504.048 839.552 503.92 842.976 503.664C846.4 503.408 849.904 502.928 853.488 502.224L854.16 507.408C850.448 508.176 846.832 508.704 843.312 508.992C839.792 509.248 836.384 509.376 833.088 509.376H829.296V504.048ZM872.109 510.192H912.381V515.376H872.109V510.192ZM889.005 501.744H895.341V512.256H889.005V501.744ZM876.669 478.656H907.821V493.488H883.053V500.928H876.717V488.496H901.485V483.744H876.669V478.656ZM876.717 498.432H908.829V503.52H876.717V498.432ZM956.222 475.824H962.606V503.76H956.222V475.824ZM960.398 487.152H968.222V492.336H960.398V487.152ZM947.726 504.288C950.862 504.288 953.55 504.608 955.79 505.248C958.062 505.888 959.806 506.8 961.022 507.984C962.27 509.168 962.894 510.592 962.894 512.256C962.894 513.92 962.27 515.344 961.022 516.528C959.806 517.744 958.062 518.672 955.79 519.312C953.55 519.952 950.862 520.272 947.726 520.272C944.622 520.272 941.934 519.952 939.662 519.312C937.422 518.672 935.678 517.744 934.43 516.528C933.214 515.344 932.606 513.92 932.606 512.256C932.606 510.592 933.214 509.168 934.43 507.984C935.678 506.8 937.422 505.888 939.662 505.248C941.934 504.608 944.622 504.288 947.726 504.288ZM947.726 509.136C944.878 509.136 942.702 509.392 941.198 509.904C939.726 510.416 938.99 511.2 938.99 512.256C938.99 513.344 939.726 514.16 941.198 514.704C942.702 515.216 944.878 515.472 947.726 515.472C950.606 515.472 952.782 515.216 954.254 514.704C955.726 514.16 956.462 513.344 956.462 512.256C956.462 511.2 955.726 510.416 954.254 509.904C952.782 509.392 950.606 509.136 947.726 509.136ZM937.454 492.336H943.838V499.152H937.454V492.336ZM927.902 501.936L927.182 497.04C929.742 497.04 932.526 497.024 935.534 496.992C938.574 496.928 941.662 496.816 944.798 496.656C947.966 496.464 951.006 496.16 953.918 495.744L954.398 500.112C951.39 500.656 948.318 501.056 945.182 501.312C942.046 501.568 938.99 501.728 936.014 501.792C933.07 501.856 930.366 501.904 927.902 501.936ZM940.622 477.12C942.798 477.12 944.702 477.488 946.334 478.224C947.998 478.928 949.31 479.92 950.27 481.2C951.23 482.48 951.71 483.952 951.71 485.616C951.71 487.312 951.23 488.8 950.27 490.08C949.31 491.328 947.998 492.32 946.334 493.056C944.702 493.76 942.798 494.112 940.622 494.112C938.446 494.112 936.526 493.76 934.862 493.056C933.198 492.32 931.886 491.328 930.926 490.08C929.966 488.8 929.486 487.312 929.486 485.616C929.486 483.952 929.966 482.48 930.926 481.2C931.886 479.92 933.198 478.928 934.862 478.224C936.526 477.488 938.446 477.12 940.622 477.12ZM940.622 481.776C939.086 481.776 937.838 482.112 936.878 482.784C935.918 483.424 935.438 484.368 935.438 485.616C935.438 486.448 935.646 487.168 936.062 487.776C936.51 488.352 937.118 488.784 937.886 489.072C938.686 489.36 939.598 489.504 940.622 489.504C941.646 489.504 942.542 489.36 943.31 489.072C944.078 488.784 944.67 488.352 945.086 487.776C945.534 487.168 945.758 486.448 945.758 485.616C945.758 484.368 945.278 483.424 944.318 482.784C943.39 482.112 942.158 481.776 940.622 481.776ZM976.475 477.696H1004.6V482.784H976.475V477.696ZM971.531 493.008H1011.8V498.144H971.531V493.008ZM988.427 496.608H994.763V505.92H988.427V496.608ZM1000.76 477.696H1007.05V481.248C1007.05 483.168 1006.99 485.28 1006.86 487.584C1006.76 489.856 1006.36 492.448 1005.66 495.36L999.419 494.784C1000.09 491.904 1000.47 489.408 1000.57 487.296C1000.7 485.152 1000.76 483.136 1000.76 481.248V477.696ZM975.562 504.384H1007.15V520.272H1000.76V509.424H975.562V504.384ZM1050.6 487.296H1060.92V492.432H1050.6V487.296ZM1057.56 475.824H1064V508.224H1057.56V475.824ZM1034.62 514.368H1065V519.504H1034.62V514.368ZM1034.62 505.488H1041V517.392H1034.62V505.488ZM1037.07 481.632H1042.25V484.416C1042.25 487.232 1041.8 489.904 1040.91 492.432C1040.01 494.96 1038.64 497.184 1036.78 499.104C1034.96 500.992 1032.6 502.416 1029.72 503.376L1026.56 498.288C1028.38 497.68 1029.95 496.896 1031.26 495.936C1032.6 494.944 1033.69 493.824 1034.52 492.576C1035.39 491.328 1036.03 490.016 1036.44 488.64C1036.86 487.264 1037.07 485.856 1037.07 484.416V481.632ZM1038.41 481.632H1043.5V484.416C1043.5 486.144 1043.85 487.872 1044.56 489.6C1045.26 491.296 1046.35 492.848 1047.82 494.256C1049.32 495.632 1051.24 496.72 1053.58 497.52L1050.46 502.464C1047.71 501.536 1045.44 500.176 1043.64 498.384C1041.88 496.56 1040.57 494.448 1039.71 492.048C1038.84 489.616 1038.41 487.072 1038.41 484.416V481.632ZM1028.28 478.8H1052.19V483.888H1028.28V478.8ZM1089.05 492.624H1096.06V497.808H1089.05V492.624ZM1078.68 488.16H1083.53V489.312C1083.53 491.616 1083.34 493.904 1082.95 496.176C1082.6 498.416 1082.02 500.544 1081.22 502.56C1080.46 504.544 1079.45 506.352 1078.2 507.984C1076.98 509.584 1075.48 510.896 1073.69 511.92L1070.14 507.12C1071.7 506.192 1073.03 505.072 1074.12 503.76C1075.21 502.416 1076.09 500.96 1076.76 499.392C1077.46 497.792 1077.96 496.144 1078.25 494.448C1078.54 492.72 1078.68 491.008 1078.68 489.312V488.16ZM1079.93 488.16H1084.78V489.312C1084.78 490.944 1084.92 492.592 1085.21 494.256C1085.53 495.92 1086.02 497.488 1086.7 498.96C1087.37 500.432 1088.25 501.792 1089.34 503.04C1090.42 504.256 1091.75 505.28 1093.32 506.112L1089.86 510.864C1087.5 509.616 1085.58 507.888 1084.1 505.68C1082.63 503.44 1081.56 500.912 1080.89 498.096C1080.25 495.248 1079.93 492.32 1079.93 489.312V488.16ZM1071.77 483.264H1091.59V488.4H1071.77V483.264ZM1078.68 477.264H1084.78V487.392H1078.68V477.264ZM1103.02 475.776H1109.11V520.224H1103.02V475.776ZM1094.04 476.496H1099.99V518.208H1094.04V476.496ZM1129.41 478.752C1131.72 478.752 1133.8 479.216 1135.65 480.144C1137.51 481.072 1138.96 482.368 1140.02 484.032C1141.08 485.664 1141.6 487.552 1141.6 489.696C1141.6 491.808 1141.08 493.696 1140.02 495.36C1138.96 497.024 1137.51 498.32 1135.65 499.248C1133.8 500.176 1131.72 500.64 1129.41 500.64C1127.08 500.64 1124.98 500.176 1123.12 499.248C1121.27 498.32 1119.8 497.024 1118.71 495.36C1117.65 493.696 1117.12 491.808 1117.12 489.696C1117.12 487.552 1117.65 485.664 1118.71 484.032C1119.8 482.368 1121.27 481.072 1123.12 480.144C1124.98 479.216 1127.08 478.752 1129.41 478.752ZM1129.41 484.224C1128.26 484.224 1127.22 484.448 1126.29 484.896C1125.4 485.312 1124.68 485.936 1124.13 486.768C1123.62 487.568 1123.36 488.544 1123.36 489.696C1123.36 490.848 1123.62 491.84 1124.13 492.672C1124.68 493.504 1125.4 494.144 1126.29 494.592C1127.22 495.008 1128.26 495.216 1129.41 495.216C1130.53 495.216 1131.54 495.008 1132.44 494.592C1133.33 494.144 1134.04 493.504 1134.55 492.672C1135.09 491.84 1135.36 490.848 1135.36 489.696C1135.36 488.544 1135.09 487.568 1134.55 486.768C1134.04 485.936 1133.33 485.312 1132.44 484.896C1131.54 484.448 1130.53 484.224 1129.41 484.224ZM1145.78 475.728H1152.16V520.32H1145.78V475.728ZM1116.02 511.344L1115.3 506.16C1117.89 506.16 1120.76 506.144 1123.89 506.112C1127.06 506.048 1130.31 505.92 1133.64 505.728C1137 505.504 1140.24 505.168 1143.38 504.72L1143.81 509.328C1140.61 509.968 1137.36 510.432 1134.07 510.72C1130.77 510.976 1127.59 511.152 1124.52 511.248C1121.44 511.312 1118.61 511.344 1116.02 511.344ZM1170.37 497.424H1210.6V502.464H1170.37V497.424ZM1187.61 500.688H1194.09V510.096H1187.61V500.688ZM1175.08 514.368H1206.23V519.504H1175.08V514.368ZM1175.08 506.16H1181.51V515.664H1175.08V506.16ZM1190.44 476.592C1193.64 476.592 1196.44 476.976 1198.84 477.744C1201.24 478.48 1203.09 479.552 1204.41 480.96C1205.75 482.336 1206.42 483.968 1206.42 485.856C1206.42 487.712 1205.75 489.328 1204.41 490.704C1203.09 492.08 1201.24 493.152 1198.84 493.92C1196.44 494.688 1193.64 495.072 1190.44 495.072C1187.27 495.072 1184.49 494.688 1182.09 493.92C1179.69 493.152 1177.81 492.08 1176.47 490.704C1175.13 489.328 1174.45 487.712 1174.45 485.856C1174.45 483.968 1175.13 482.336 1176.47 480.96C1177.81 479.552 1179.69 478.48 1182.09 477.744C1184.49 476.976 1187.27 476.592 1190.44 476.592ZM1190.44 481.68C1188.58 481.68 1186.97 481.84 1185.59 482.16C1184.25 482.48 1183.19 482.944 1182.42 483.552C1181.69 484.16 1181.32 484.928 1181.32 485.856C1181.32 486.72 1181.69 487.472 1182.42 488.112C1183.19 488.752 1184.25 489.232 1185.59 489.552C1186.97 489.84 1188.58 489.984 1190.44 489.984C1192.33 489.984 1193.94 489.84 1195.29 489.552C1196.66 489.232 1197.72 488.752 1198.45 488.112C1199.19 487.472 1199.56 486.72 1199.56 485.856C1199.56 484.928 1199.19 484.16 1198.45 483.552C1197.72 482.944 1196.66 482.48 1195.29 482.16C1193.94 481.84 1192.33 481.68 1190.44 481.68ZM1235.99 482.208H1247.31V487.296H1235.99V482.208ZM1235.99 491.088H1247.51V496.176H1235.99V491.088ZM1245.3 475.824H1251.73V501.84H1245.3V475.824ZM1216.31 478.992H1237.33V499.44H1216.31V478.992ZM1231.09 484.032H1222.59V494.448H1231.09V484.032ZM1236.66 502.992C1241.36 502.992 1245.07 503.76 1247.79 505.296C1250.51 506.8 1251.87 508.896 1251.87 511.584C1251.87 514.336 1250.51 516.464 1247.79 517.968C1245.07 519.504 1241.36 520.272 1236.66 520.272C1231.95 520.272 1228.24 519.504 1225.52 517.968C1222.8 516.464 1221.44 514.336 1221.44 511.584C1221.44 508.896 1222.8 506.8 1225.52 505.296C1228.24 503.76 1231.95 502.992 1236.66 502.992ZM1236.66 507.888C1234.74 507.888 1233.12 508.016 1231.81 508.272C1230.5 508.528 1229.49 508.944 1228.79 509.52C1228.11 510.064 1227.78 510.768 1227.78 511.632C1227.78 512.464 1228.11 513.168 1228.79 513.744C1229.49 514.288 1230.5 514.704 1231.81 514.992C1233.12 515.248 1234.74 515.376 1236.66 515.376C1238.58 515.376 1240.19 515.248 1241.51 514.992C1242.82 514.704 1243.81 514.288 1244.48 513.744C1245.15 513.168 1245.49 512.464 1245.49 511.632C1245.49 510.768 1245.15 510.064 1244.48 509.52C1243.81 508.944 1242.82 508.528 1241.51 508.272C1240.19 508.016 1238.58 507.888 1236.66 507.888ZM1278.8 476.4C1283.85 476.4 1287.79 477.056 1290.61 478.368C1293.45 479.68 1294.88 481.568 1294.88 484.032C1294.88 486.464 1293.45 488.336 1290.61 489.648C1287.79 490.96 1283.85 491.616 1278.8 491.616C1273.71 491.616 1269.74 490.96 1266.89 489.648C1264.08 488.336 1262.67 486.464 1262.67 484.032C1262.67 481.568 1264.08 479.68 1266.89 478.368C1269.74 477.056 1273.71 476.4 1278.8 476.4ZM1278.75 481.104C1276.64 481.104 1274.88 481.216 1273.47 481.44C1272.06 481.632 1271.01 481.952 1270.3 482.4C1269.63 482.816 1269.29 483.36 1269.29 484.032C1269.29 484.704 1269.63 485.264 1270.3 485.712C1271.01 486.128 1272.06 486.432 1273.47 486.624C1274.88 486.816 1276.64 486.912 1278.75 486.912C1280.89 486.912 1282.67 486.816 1284.08 486.624C1285.49 486.432 1286.53 486.128 1287.2 485.712C1287.87 485.264 1288.21 484.704 1288.21 484.032C1288.21 483.36 1287.87 482.816 1287.2 482.4C1286.53 481.952 1285.49 481.632 1284.08 481.44C1282.67 481.216 1280.89 481.104 1278.75 481.104ZM1258.64 493.68H1298.86V498.72H1258.64V493.68ZM1263.25 501.216H1293.97V512.592H1269.63V516.528H1263.29V508.176H1287.68V505.92H1263.25V501.216ZM1263.29 515.136H1295.17V519.984H1263.29V515.136ZM1315.2 478.944H1336.42V499.68H1315.2V478.944ZM1330.13 483.984H1321.49V494.688H1330.13V483.984ZM1342.51 475.824H1348.9V502.176H1342.51V475.824ZM1347.17 486.336H1354.8V491.616H1347.17V486.336ZM1319.23 504.144H1348.9V520.272H1342.51V509.232H1319.23V504.144ZM1370.01 478.848C1372.28 478.848 1374.28 479.504 1376.01 480.816C1377.77 482.096 1379.15 483.936 1380.14 486.336C1381.16 488.704 1381.68 491.504 1381.68 494.736C1381.68 498 1381.16 500.832 1380.14 503.232C1379.15 505.6 1377.77 507.44 1376.01 508.752C1374.28 510.032 1372.28 510.672 1370.01 510.672C1367.74 510.672 1365.72 510.032 1363.96 508.752C1362.2 507.44 1360.81 505.6 1359.79 503.232C1358.8 500.832 1358.3 498 1358.3 494.736C1358.3 491.504 1358.8 488.704 1359.79 486.336C1360.81 483.936 1362.2 482.096 1363.96 480.816C1365.72 479.504 1367.74 478.848 1370.01 478.848ZM1370.01 484.656C1368.92 484.656 1367.95 485.04 1367.08 485.808C1366.25 486.576 1365.6 487.712 1365.12 489.216C1364.67 490.688 1364.44 492.528 1364.44 494.736C1364.44 496.912 1364.67 498.768 1365.12 500.304C1365.6 501.808 1366.25 502.944 1367.08 503.712C1367.95 504.48 1368.92 504.864 1370.01 504.864C1371.1 504.864 1372.06 504.48 1372.89 503.712C1373.72 502.944 1374.36 501.808 1374.81 500.304C1375.29 498.768 1375.53 496.912 1375.53 494.736C1375.53 492.528 1375.29 490.688 1374.81 489.216C1374.36 487.712 1373.72 486.576 1372.89 485.808C1372.06 485.04 1371.1 484.656 1370.01 484.656ZM1386.48 475.824H1392.91V520.272H1386.48V475.824ZM1391.52 492.576H1399.34V497.808H1391.52V492.576ZM1414.17 478.848C1416.44 478.848 1418.44 479.504 1420.17 480.816C1421.93 482.096 1423.3 483.936 1424.3 486.336C1425.32 488.704 1425.83 491.504 1425.83 494.736C1425.83 498 1425.32 500.832 1424.3 503.232C1423.3 505.6 1421.93 507.44 1420.17 508.752C1418.44 510.032 1416.44 510.672 1414.17 510.672C1411.9 510.672 1409.88 510.032 1408.12 508.752C1406.36 507.44 1404.97 505.6 1403.94 503.232C1402.95 500.832 1402.46 498 1402.46 494.736C1402.46 491.504 1402.95 488.704 1403.94 486.336C1404.97 483.936 1406.36 482.096 1408.12 480.816C1409.88 479.504 1411.9 478.848 1414.17 478.848ZM1414.17 484.656C1413.08 484.656 1412.1 485.04 1411.24 485.808C1410.41 486.576 1409.75 487.712 1409.27 489.216C1408.82 490.688 1408.6 492.528 1408.6 494.736C1408.6 496.912 1408.82 498.768 1409.27 500.304C1409.75 501.808 1410.41 502.944 1411.24 503.712C1412.1 504.48 1413.08 504.864 1414.17 504.864C1415.26 504.864 1416.22 504.48 1417.05 503.712C1417.88 502.944 1418.52 501.808 1418.97 500.304C1419.45 498.768 1419.69 496.912 1419.69 494.736C1419.69 492.528 1419.45 490.688 1418.97 489.216C1418.52 487.712 1417.88 486.576 1417.05 485.808C1416.22 485.04 1415.26 484.656 1414.17 484.656ZM1435.34 486.144H1443.16V491.376H1435.34V486.144ZM1435.34 499.152H1443.16V504.384H1435.34V499.152ZM1430.63 475.824H1437.06V520.272H1430.63V475.824ZM1486.09 475.824H1492.47V509.04H1486.09V475.824ZM1490.7 489.36H1498.38V494.64H1490.7V489.36ZM1457.53 480.48H1483.64V485.472H1457.53V480.48ZM1470.59 487.056C1472.73 487.056 1474.62 487.424 1476.25 488.16C1477.91 488.864 1479.21 489.872 1480.14 491.184C1481.07 492.464 1481.53 493.936 1481.53 495.6C1481.53 497.296 1481.07 498.8 1480.14 500.112C1479.21 501.392 1477.91 502.4 1476.25 503.136C1474.62 503.84 1472.73 504.192 1470.59 504.192C1468.47 504.192 1466.59 503.84 1464.92 503.136C1463.26 502.4 1461.96 501.392 1461.03 500.112C1460.11 498.8 1459.64 497.296 1459.64 495.6C1459.64 493.936 1460.11 492.464 1461.03 491.184C1461.96 489.872 1463.26 488.864 1464.92 488.16C1466.59 487.424 1468.47 487.056 1470.59 487.056ZM1470.59 491.904C1469.18 491.904 1468.03 492.224 1467.13 492.864C1466.23 493.504 1465.79 494.432 1465.79 495.648C1465.79 496.832 1466.23 497.744 1467.13 498.384C1468.03 499.024 1469.18 499.344 1470.59 499.344C1472.03 499.344 1473.18 499.024 1474.04 498.384C1474.94 497.744 1475.39 496.832 1475.39 495.648C1475.39 494.432 1474.94 493.504 1474.04 492.864C1473.18 492.224 1472.03 491.904 1470.59 491.904ZM1467.42 475.776H1473.75V482.88H1467.42V475.776ZM1463.82 514.368H1494.06V519.504H1463.82V514.368ZM1463.82 506.544H1470.25V516.576H1463.82V506.544ZM1530.05 475.728H1536.49V520.32H1530.05V475.728ZM1535.09 492.192H1542.92V497.472H1535.09V492.192ZM1503.37 504.384H1507.11C1509.64 504.384 1512.01 504.352 1514.21 504.288C1516.42 504.192 1518.57 504.048 1520.65 503.856C1522.73 503.632 1524.85 503.328 1527.03 502.944L1527.65 508.224C1525.41 508.608 1523.21 508.912 1521.03 509.136C1518.89 509.36 1516.68 509.504 1514.41 509.568C1512.13 509.632 1509.7 509.664 1507.11 509.664H1503.37V504.384ZM1503.37 479.856H1524.1V484.992H1509.75V506.88H1503.37V479.856ZM1551.02 516.443C1549.89 516.443 1548.93 516.045 1548.12 515.25C1547.32 514.443 1546.93 513.477 1546.93 512.352C1546.93 511.239 1547.32 510.284 1548.12 509.489C1548.93 508.693 1549.89 508.295 1551.02 508.295C1552.11 508.295 1553.06 508.693 1553.88 509.489C1554.7 510.284 1555.11 511.239 1555.11 512.352C1555.11 513.102 1554.91 513.79 1554.53 514.415C1554.15 515.028 1553.66 515.523 1553.05 515.898C1552.43 516.261 1551.76 516.443 1551.02 516.443ZM1562.37 481.091V484.773C1562.37 485.818 1562.17 486.886 1561.76 487.977C1561.36 489.057 1560.83 490.08 1560.16 491.045C1559.49 492 1558.75 492.812 1557.96 493.483L1554.75 491.591C1555.32 490.693 1555.82 489.699 1556.25 488.608C1556.7 487.517 1556.92 486.25 1556.92 484.807V481.091H1562.37ZM1570.95 481.091V484.773C1570.95 485.818 1570.74 486.886 1570.33 487.977C1569.94 489.057 1569.4 490.08 1568.73 491.045C1568.06 492 1567.32 492.812 1566.52 493.483L1563.31 491.591C1563.89 490.693 1564.4 489.699 1564.83 488.608C1565.27 487.517 1565.49 486.25 1565.49 484.807V481.091H1570.95Z" fill="white"/>
<path d="M865.065 764.477C862.815 764.477 860.81 764.091 859.048 763.318C857.298 762.545 855.906 761.472 854.872 760.097C853.849 758.71 853.293 757.102 853.202 755.273H857.497C857.588 756.398 857.974 757.369 858.656 758.188C859.338 758.994 860.23 759.619 861.332 760.062C862.435 760.506 863.656 760.727 864.997 760.727C866.497 760.727 867.827 760.466 868.986 759.943C870.145 759.42 871.054 758.693 871.713 757.761C872.372 756.83 872.702 755.75 872.702 754.523C872.702 753.239 872.384 752.108 871.747 751.131C871.111 750.142 870.179 749.369 868.952 748.812C867.724 748.256 866.224 747.977 864.452 747.977H861.656V744.227H864.452C865.838 744.227 867.054 743.977 868.099 743.477C869.156 742.977 869.98 742.273 870.571 741.364C871.173 740.455 871.474 739.386 871.474 738.159C871.474 736.977 871.213 735.949 870.69 735.074C870.168 734.199 869.429 733.517 868.474 733.028C867.531 732.54 866.418 732.295 865.134 732.295C863.929 732.295 862.793 732.517 861.724 732.96C860.668 733.392 859.804 734.023 859.134 734.852C858.463 735.67 858.099 736.659 858.043 737.818H853.952C854.02 735.989 854.571 734.386 855.605 733.011C856.639 731.625 857.991 730.545 859.662 729.773C861.344 729 863.19 728.614 865.202 728.614C867.361 728.614 869.213 729.051 870.759 729.926C872.304 730.79 873.491 731.932 874.321 733.352C875.151 734.773 875.565 736.307 875.565 737.955C875.565 739.92 875.048 741.597 874.014 742.983C872.991 744.369 871.599 745.33 869.838 745.864V746.136C872.043 746.5 873.764 747.437 875.003 748.949C876.241 750.449 876.861 752.307 876.861 754.523C876.861 756.42 876.344 758.125 875.31 759.636C874.287 761.136 872.889 762.318 871.116 763.182C869.344 764.045 867.327 764.477 865.065 764.477ZM903.307 731.36H915.835V734.576H903.307V731.36ZM903.307 739.952H915.931V743.216H903.307V739.952ZM914.347 724.304H918.331V749.984H914.347V724.304ZM884.635 727.616H904.411V746.912H884.635V727.616ZM900.523 730.832H888.523V743.696H900.523V730.832ZM904.027 751.28C908.507 751.28 912.027 752 914.587 753.44C917.179 754.88 918.475 756.896 918.475 759.488C918.475 762.08 917.179 764.08 914.587 765.488C912.027 766.928 908.507 767.648 904.027 767.648C899.547 767.648 896.011 766.928 893.419 765.488C890.859 764.08 889.579 762.08 889.579 759.488C889.579 756.896 890.859 754.88 893.419 753.44C896.011 752 899.547 751.28 904.027 751.28ZM904.027 754.4C901.851 754.4 899.979 754.608 898.411 755.024C896.843 755.408 895.627 755.984 894.763 756.752C893.931 757.488 893.515 758.4 893.515 759.488C893.515 760.512 893.931 761.408 894.763 762.176C895.627 762.912 896.843 763.488 898.411 763.904C899.979 764.32 901.851 764.528 904.027 764.528C906.235 764.528 908.107 764.32 909.643 763.904C911.211 763.488 912.411 762.912 913.243 762.176C914.107 761.408 914.539 760.512 914.539 759.488C914.539 758.4 914.107 757.488 913.243 756.752C912.411 755.984 911.211 755.408 909.643 755.024C908.107 754.608 906.235 754.4 904.027 754.4ZM940.839 727.472C943.111 727.472 945.111 727.904 946.839 728.768C948.599 729.6 949.975 730.784 950.967 732.32C951.959 733.856 952.455 735.648 952.455 737.696C952.455 739.712 951.959 741.504 950.967 743.072C949.975 744.608 948.599 745.808 946.839 746.672C945.111 747.504 943.111 747.92 940.839 747.92C938.599 747.92 936.599 747.504 934.839 746.672C933.079 745.808 931.687 744.608 930.663 743.072C929.671 741.504 929.175 739.712 929.175 737.696C929.175 735.648 929.671 733.856 930.663 732.32C931.687 730.784 933.079 729.6 934.839 728.768C936.599 727.904 938.599 727.472 940.839 727.472ZM940.839 730.928C939.367 730.928 938.039 731.216 936.855 731.792C935.703 732.336 934.791 733.12 934.119 734.144C933.447 735.168 933.111 736.352 933.111 737.696C933.111 739.04 933.447 740.224 934.119 741.248C934.791 742.272 935.703 743.072 936.855 743.648C938.039 744.192 939.367 744.464 940.839 744.464C942.343 744.464 943.671 744.192 944.823 743.648C945.975 743.072 946.887 742.272 947.559 741.248C948.231 740.224 948.567 739.04 948.567 737.696C948.567 736.352 948.231 735.168 947.559 734.144C946.887 733.12 945.975 732.336 944.823 731.792C943.671 731.216 942.343 730.928 940.839 730.928ZM958.167 724.304H962.151V767.792H958.167V724.304ZM927.543 758.288L927.015 754.928C929.671 754.928 932.583 754.912 935.751 754.88C938.919 754.816 942.183 754.688 945.543 754.496C948.935 754.272 952.199 753.92 955.335 753.44L955.671 756.368C952.407 756.976 949.095 757.424 945.735 757.712C942.407 757.968 939.191 758.128 936.087 758.192C932.983 758.256 930.135 758.288 927.543 758.288ZM994.079 739.04H998.063V747.2H994.079V739.04ZM1010.02 739.04H1013.95V747.2H1010.02V739.04ZM984.431 745.76H1023.65V748.976H984.431V745.76ZM1004.02 752.288C1008.66 752.288 1012.29 752.944 1014.91 754.256C1017.54 755.568 1018.85 757.456 1018.85 759.92C1018.85 762.416 1017.54 764.32 1014.91 765.632C1012.29 766.976 1008.66 767.648 1004.02 767.648C999.375 767.648 995.727 766.976 993.071 765.632C990.447 764.32 989.135 762.416 989.135 759.92C989.135 757.456 990.447 755.568 993.071 754.256C995.727 752.944 999.375 752.288 1004.02 752.288ZM1004.02 755.36C1001.74 755.36 999.791 755.536 998.159 755.888C996.559 756.24 995.327 756.768 994.463 757.472C993.599 758.144 993.167 758.96 993.167 759.92C993.167 760.944 993.599 761.808 994.463 762.512C995.327 763.184 996.559 763.696 998.159 764.048C999.791 764.4 1001.74 764.576 1004.02 764.576C1006.29 764.576 1008.22 764.4 1009.82 764.048C1011.46 763.696 1012.7 763.184 1013.57 762.512C1014.43 761.808 1014.86 760.944 1014.86 759.92C1014.86 758.96 1014.43 758.144 1013.57 757.472C1012.7 756.768 1011.46 756.24 1009.82 755.888C1008.22 755.536 1006.29 755.36 1004.02 755.36ZM1004.02 725.12C1007.15 725.12 1009.86 725.44 1012.13 726.08C1014.43 726.72 1016.19 727.648 1017.41 728.864C1018.66 730.048 1019.28 731.488 1019.28 733.184C1019.28 734.848 1018.66 736.288 1017.41 737.504C1016.19 738.72 1014.43 739.648 1012.13 740.288C1009.86 740.896 1007.15 741.2 1004.02 741.2C1000.88 741.2 998.159 740.896 995.855 740.288C993.583 739.648 991.823 738.72 990.575 737.504C989.359 736.288 988.751 734.848 988.751 733.184C988.751 731.488 989.359 730.048 990.575 728.864C991.823 727.648 993.583 726.72 995.855 726.08C998.159 725.44 1000.88 725.12 1004.02 725.12ZM1004.02 728.24C1001.74 728.24 999.759 728.432 998.063 728.816C996.399 729.2 995.103 729.76 994.175 730.496C993.279 731.232 992.831 732.128 992.831 733.184C992.831 734.208 993.279 735.104 994.175 735.872C995.103 736.608 996.399 737.168 998.063 737.552C999.759 737.936 1001.74 738.128 1004.02 738.128C1006.35 738.128 1008.35 737.936 1010.02 737.552C1011.68 737.168 1012.96 736.608 1013.86 735.872C1014.75 735.104 1015.2 734.208 1015.2 733.184C1015.2 732.128 1014.75 731.232 1013.86 730.496C1012.96 729.76 1011.68 729.2 1010.02 728.816C1008.35 728.432 1006.35 728.24 1004.02 728.24ZM1039.2 728.048H1042.46V735.824C1042.46 738.224 1042.16 740.576 1041.55 742.88C1040.97 745.184 1040.14 747.344 1039.05 749.36C1037.96 751.376 1036.68 753.168 1035.21 754.736C1033.74 756.304 1032.14 757.552 1030.41 758.48L1027.96 755.264C1029.56 754.464 1031.04 753.392 1032.38 752.048C1033.76 750.672 1034.96 749.104 1035.98 747.344C1037 745.584 1037.79 743.728 1038.33 741.776C1038.91 739.792 1039.2 737.808 1039.2 735.824V728.048ZM1039.92 728.048H1043.13V735.824C1043.13 737.744 1043.4 739.648 1043.95 741.536C1044.52 743.424 1045.32 745.2 1046.35 746.864C1047.37 748.528 1048.54 750.016 1049.85 751.328C1051.2 752.64 1052.64 753.68 1054.17 754.448L1051.72 757.616C1050.03 756.752 1048.46 755.568 1047.02 754.064C1045.61 752.56 1044.36 750.848 1043.28 748.928C1042.22 746.976 1041.39 744.896 1040.78 742.688C1040.2 740.448 1039.92 738.16 1039.92 735.824V728.048ZM1057.96 724.304H1061.95V767.744H1057.96V724.304ZM1061.04 741.872H1069.05V745.28H1061.04V741.872ZM518.675 782.304H522.707V808.128H518.675V782.304ZM521.555 793.584H529.043V796.896H521.555V793.584ZM508.835 809.04C511.747 809.04 514.259 809.376 516.371 810.048C518.515 810.688 520.163 811.632 521.315 812.88C522.499 814.096 523.091 815.584 523.091 817.344C523.091 819.072 522.499 820.56 521.315 821.808C520.163 823.056 518.515 824 516.371 824.64C514.259 825.312 511.747 825.648 508.835 825.648C505.891 825.648 503.347 825.312 501.203 824.64C499.059 824 497.411 823.056 496.259 821.808C495.107 820.56 494.531 819.072 494.531 817.344C494.531 815.584 495.107 814.096 496.259 812.88C497.411 811.632 499.059 810.688 501.203 810.048C503.347 809.376 505.891 809.04 508.835 809.04ZM508.835 812.256C506.691 812.256 504.835 812.464 503.267 812.88C501.731 813.264 500.531 813.84 499.667 814.608C498.835 815.344 498.419 816.256 498.419 817.344C498.419 818.4 498.835 819.312 499.667 820.08C500.531 820.848 501.731 821.44 503.267 821.856C504.835 822.24 506.691 822.432 508.835 822.432C510.947 822.432 512.787 822.24 514.355 821.856C515.923 821.44 517.123 820.848 517.955 820.08C518.787 819.312 519.203 818.4 519.203 817.344C519.203 816.256 518.787 815.344 517.955 814.608C517.123 813.84 515.923 813.264 514.355 812.88C512.787 812.464 510.947 812.256 508.835 812.256ZM490.883 801.408H494.243C497.283 801.408 499.923 801.376 502.163 801.312C504.403 801.248 506.467 801.104 508.355 800.88C510.243 800.656 512.163 800.352 514.115 799.968L514.547 803.232C512.563 803.616 510.595 803.92 508.643 804.144C506.723 804.336 504.611 804.48 502.307 804.576C500.003 804.64 497.315 804.672 494.243 804.672H490.883V801.408ZM490.883 785.616H510.035V788.88H494.819V803.568H490.883V785.616ZM564.703 782.352H568.687V814.176H564.703V782.352ZM540.799 821.52H570.031V824.784H540.799V821.52ZM540.799 811.248H544.783V823.056H540.799V811.248ZM544.399 784.752H547.711V789.12C547.711 791.968 547.215 794.64 546.223 797.136C545.231 799.6 543.823 801.776 541.999 803.664C540.207 805.52 538.095 806.944 535.663 807.936L533.551 804.768C535.759 803.904 537.663 802.672 539.263 801.072C540.895 799.472 542.159 797.648 543.055 795.6C543.951 793.52 544.399 791.36 544.399 789.12V784.752ZM545.119 784.752H548.431V789.12C548.431 790.752 548.687 792.336 549.199 793.872C549.711 795.376 550.447 796.784 551.407 798.096C552.367 799.408 553.503 800.576 554.815 801.6C556.159 802.592 557.631 803.376 559.231 803.952L557.167 807.12C554.767 806.192 552.655 804.848 550.831 803.088C549.039 801.296 547.631 799.216 546.607 796.848C545.615 794.448 545.119 791.872 545.119 789.12V784.752ZM577.275 800.448H616.539V803.664H577.275V800.448ZM582.507 793.728H611.835V796.944H582.507V793.728ZM582.507 783.744H611.403V786.96H586.443V796.272H582.507V783.744ZM582.027 807.456H611.451V817.632H586.011V823.104H582.123V814.656H607.563V810.576H582.027V807.456ZM582.123 822.048H612.747V825.216H582.123V822.048ZM621.431 805.152H660.647V808.368H621.431V805.152ZM626.471 821.52H656.279V824.784H626.471V821.52ZM626.471 812.208H630.455V822.48H626.471V812.208ZM641.015 783.792C644.119 783.792 646.807 784.144 649.079 784.848C651.383 785.52 653.159 786.512 654.407 787.824C655.655 789.104 656.279 790.64 656.279 792.432C656.279 794.224 655.655 795.776 654.407 797.088C653.159 798.4 651.383 799.408 649.079 800.112C646.807 800.784 644.119 801.12 641.015 801.12C637.911 801.12 635.207 800.784 632.903 800.112C630.631 799.408 628.871 798.4 627.623 797.088C626.375 795.776 625.751 794.224 625.751 792.432C625.751 790.64 626.375 789.104 627.623 787.824C628.871 786.512 630.631 785.52 632.903 784.848C635.207 784.144 637.911 783.792 641.015 783.792ZM641.015 787.008C638.775 787.008 636.807 787.232 635.111 787.68C633.447 788.096 632.151 788.72 631.223 789.552C630.295 790.352 629.831 791.312 629.831 792.432C629.831 793.552 630.295 794.528 631.223 795.36C632.151 796.16 633.447 796.784 635.111 797.232C636.807 797.648 638.775 797.856 641.015 797.856C643.319 797.856 645.303 797.648 646.967 797.232C648.631 796.784 649.911 796.16 650.807 795.36C651.735 794.528 652.199 793.552 652.199 792.432C652.199 791.312 651.735 790.352 650.807 789.552C649.911 788.72 648.631 788.096 646.967 787.68C645.303 787.232 643.319 787.008 641.015 787.008ZM681.056 787.056H700.64V790.32H681.056V787.056ZM687.824 799.488H691.76V814.176H687.824V799.488ZM699.008 787.056H702.944V789.408C702.944 791.168 702.88 793.472 702.752 796.32C702.656 799.168 702.304 802.608 701.696 806.64L697.76 806.304C698.4 802.368 698.768 799.008 698.864 796.224C698.96 793.44 699.008 791.168 699.008 789.408V787.056ZM708.368 782.304H712.352V825.744H708.368V782.304ZM711.248 800.448H719.264V803.856H711.248V800.448ZM679.136 816.24L678.656 812.928C681.248 812.896 684.08 812.864 687.152 812.832C690.256 812.768 693.392 812.64 696.56 812.448C699.76 812.256 702.816 811.984 705.728 811.632L705.968 814.608C702.96 815.088 699.872 815.44 696.704 815.664C693.568 815.888 690.496 816.048 687.488 816.144C684.48 816.208 681.696 816.24 679.136 816.24ZM743.308 789.12H756.364V792.384H743.308V789.12ZM743.308 799.488H756.364V802.752H743.308V799.488ZM754.972 782.352H758.956V814.416H754.972V782.352ZM731.26 821.52H760.156V824.784H731.26V821.52ZM731.26 811.104H735.196V822.912H731.26V811.104ZM735.1 785.088C737.212 785.088 739.1 785.552 740.764 786.48C742.46 787.408 743.788 788.688 744.748 790.32C745.74 791.952 746.236 793.824 746.236 795.936C746.236 798.08 745.74 799.968 744.748 801.6C743.788 803.232 742.46 804.512 740.764 805.44C739.1 806.368 737.212 806.832 735.1 806.832C732.956 806.832 731.036 806.368 729.34 805.44C727.676 804.512 726.348 803.232 725.356 801.6C724.396 799.968 723.916 798.08 723.916 795.936C723.916 793.824 724.396 791.952 725.356 790.32C726.348 788.688 727.676 787.408 729.34 786.48C731.036 785.552 732.956 785.088 735.1 785.088ZM735.1 788.64C733.692 788.64 732.428 788.96 731.308 789.6C730.188 790.208 729.308 791.072 728.668 792.192C728.028 793.28 727.708 794.544 727.708 795.984C727.708 797.392 728.028 798.656 728.668 799.776C729.308 800.896 730.188 801.776 731.308 802.416C732.428 803.024 733.692 803.328 735.1 803.328C736.476 803.328 737.724 803.024 738.844 802.416C739.964 801.776 740.844 800.896 741.484 799.776C742.124 798.656 742.444 797.392 742.444 795.984C742.444 794.544 742.124 793.28 741.484 792.192C740.844 791.072 739.964 790.208 738.844 789.6C737.724 788.96 736.476 788.64 735.1 788.64ZM810.564 782.352H814.548V810.048H810.564V782.352ZM812.868 794.448H820.884V797.808H812.868V794.448ZM800.628 810.48C803.572 810.48 806.1 810.784 808.212 811.392C810.356 811.968 811.988 812.832 813.108 813.984C814.26 815.104 814.836 816.464 814.836 818.064C814.836 819.632 814.26 820.992 813.108 822.144C811.988 823.296 810.356 824.16 808.212 824.736C806.1 825.344 803.572 825.648 800.628 825.648C797.684 825.648 795.14 825.344 792.996 824.736C790.884 824.16 789.252 823.296 788.1 822.144C786.98 820.992 786.42 819.632 786.42 818.064C786.42 816.464 786.98 815.104 788.1 813.984C789.252 812.832 790.884 811.968 792.996 811.392C795.14 810.784 797.684 810.48 800.628 810.48ZM800.628 813.6C797.428 813.6 794.9 814 793.044 814.8C791.22 815.568 790.308 816.656 790.308 818.064C790.308 819.472 791.22 820.576 793.044 821.376C794.9 822.144 797.428 822.528 800.628 822.528C803.828 822.528 806.34 822.144 808.164 821.376C809.988 820.576 810.9 819.472 810.9 818.064C810.9 816.656 809.988 815.568 808.164 814.8C806.34 814 803.828 813.6 800.628 813.6ZM792.132 798.576H796.116V805.44H792.132V798.576ZM781.332 807.168L780.852 803.952C783.38 803.952 786.18 803.936 789.252 803.904C792.324 803.84 795.46 803.712 798.66 803.52C801.86 803.296 804.916 802.976 807.828 802.56L808.164 805.392C805.124 805.936 802.004 806.336 798.804 806.592C795.636 806.848 792.548 807.008 789.54 807.072C786.564 807.136 783.828 807.168 781.332 807.168ZM794.004 783.936C796.116 783.936 797.972 784.272 799.572 784.944C801.172 785.616 802.42 786.544 803.316 787.728C804.244 788.912 804.708 790.304 804.708 791.904C804.708 793.504 804.244 794.912 803.316 796.128C802.42 797.312 801.172 798.24 799.572 798.912C797.972 799.584 796.116 799.92 794.004 799.92C791.892 799.92 790.036 799.584 788.436 798.912C786.836 798.24 785.572 797.312 784.644 796.128C783.748 794.912 783.3 793.504 783.3 791.904C783.3 790.304 783.748 788.912 784.644 787.728C785.572 786.544 786.836 785.616 788.436 784.944C790.036 784.272 791.892 783.936 794.004 783.936ZM794.004 786.96C791.956 786.96 790.276 787.408 788.964 788.304C787.684 789.2 787.044 790.4 787.044 791.904C787.044 792.896 787.332 793.776 787.908 794.544C788.484 795.312 789.3 795.904 790.356 796.32C791.412 796.736 792.628 796.944 794.004 796.944C795.38 796.944 796.596 796.736 797.652 796.32C798.708 795.904 799.524 795.312 800.1 794.544C800.676 793.776 800.964 792.896 800.964 791.904C800.964 790.4 800.308 789.2 798.996 788.304C797.716 787.408 796.052 786.96 794.004 786.96ZM830.048 784.368H857.984V787.632H830.048V784.368ZM825.056 799.872H864.416V803.136H825.056V799.872ZM842.672 802.128H846.656V812.304H842.672V802.128ZM855.392 784.368H859.328V787.536C859.328 789.328 859.264 791.36 859.136 793.632C859.008 795.872 858.592 798.48 857.888 801.456L854 801.024C854.704 798.08 855.104 795.536 855.2 793.392C855.328 791.248 855.392 789.296 855.392 787.536V784.368ZM829.136 811.056H859.568V825.744H855.584V814.272H829.136V811.056ZM888.797 783.072C893.597 783.072 897.341 783.728 900.029 785.04C902.717 786.32 904.061 788.16 904.061 790.56C904.061 792.992 902.717 794.864 900.029 796.176C897.341 797.456 893.597 798.096 888.797 798.096C884.029 798.096 880.285 797.456 877.565 796.176C874.877 794.864 873.533 792.992 873.533 790.56C873.533 788.16 874.877 786.32 877.565 785.04C880.285 783.728 884.029 783.072 888.797 783.072ZM888.797 786.048C886.461 786.048 884.461 786.224 882.797 786.576C881.133 786.928 879.853 787.44 878.957 788.112C878.093 788.784 877.661 789.6 877.661 790.56C877.661 791.52 878.093 792.352 878.957 793.056C879.853 793.728 881.133 794.24 882.797 794.592C884.461 794.912 886.461 795.072 888.797 795.072C891.165 795.072 893.181 794.912 894.845 794.592C896.509 794.24 897.773 793.728 898.637 793.056C899.533 792.352 899.981 791.52 899.981 790.56C899.981 789.6 899.533 788.784 898.637 788.112C897.773 787.44 896.509 786.928 894.845 786.576C893.181 786.224 891.165 786.048 888.797 786.048ZM869.213 801.024H908.429V804.24H869.213V801.024ZM873.965 807.936H903.389V817.728H877.949V822.96H874.061V814.8H899.501V811.008H873.965V807.936ZM874.061 822.144H904.685V825.264H874.061V822.144ZM920.651 817.227L920.378 819.068C920.185 820.364 919.889 821.75 919.491 823.227C919.105 824.705 918.702 826.097 918.281 827.403C917.861 828.71 917.514 829.75 917.241 830.523H914.173C914.321 829.795 914.514 828.835 914.753 827.642C914.991 826.449 915.23 825.114 915.469 823.636C915.719 822.17 915.923 820.67 916.082 819.136L916.287 817.227H920.651ZM942.242 785.088H946.034V791.952H955.298V785.088H959.042V805.344H942.242V785.088ZM946.034 795.072V802.128H955.298V795.072H946.034ZM973.106 782.352H976.898V808.416H973.106V782.352ZM966.098 793.584H974.258V796.896H966.098V793.584ZM963.794 783.168H967.538V808.128H963.794V783.168ZM947.81 811.008H976.898V825.744H972.962V814.272H947.81V811.008ZM995.422 784.752H998.734V789.216C998.734 792.032 998.222 794.624 997.198 796.992C996.206 799.36 994.798 801.44 992.974 803.232C991.182 804.992 989.038 806.336 986.542 807.264L984.43 804.048C986.67 803.248 988.606 802.112 990.238 800.64C991.87 799.168 993.134 797.456 994.03 795.504C994.958 793.52 995.422 791.424 995.422 789.216V784.752ZM996.142 784.752H999.358V789.072C999.358 791.12 999.806 793.056 1000.7 794.88C1001.6 796.704 1002.83 798.32 1004.4 799.728C1006 801.104 1007.85 802.144 1009.97 802.848L1007.81 805.968C1005.47 805.072 1003.42 803.808 1001.66 802.176C999.902 800.544 998.542 798.608 997.582 796.368C996.622 794.128 996.142 791.696 996.142 789.072V784.752ZM1016.21 782.304H1020.19V807.984H1016.21V782.304ZM1005.89 809.28C1010.37 809.28 1013.89 810 1016.45 811.44C1019.04 812.88 1020.33 814.896 1020.33 817.488C1020.33 820.048 1019.04 822.048 1016.45 823.488C1013.89 824.928 1010.37 825.648 1005.89 825.648C1001.41 825.648 997.87 824.928 995.278 823.488C992.718 822.048 991.438 820.048 991.438 817.488C991.438 814.896 992.718 812.88 995.278 811.44C997.87 810 1001.41 809.28 1005.89 809.28ZM1005.89 812.448C1003.71 812.448 1001.84 812.656 1000.27 813.072C998.702 813.456 997.486 814.032 996.622 814.8C995.79 815.536 995.374 816.432 995.374 817.488C995.374 818.512 995.79 819.408 996.622 820.176C997.486 820.912 998.702 821.488 1000.27 821.904C1001.84 822.288 1003.71 822.48 1005.89 822.48C1008.09 822.48 1009.97 822.288 1011.5 821.904C1013.07 821.488 1014.27 820.912 1015.1 820.176C1015.97 819.408 1016.4 818.512 1016.4 817.488C1016.4 816.432 1015.97 815.536 1015.1 814.8C1014.27 814.032 1013.07 813.456 1011.5 813.072C1009.97 812.656 1008.09 812.448 1005.89 812.448ZM1006.75 791.472H1017.02V794.784H1006.75V791.472ZM1048.22 783.072C1053.02 783.072 1056.76 783.728 1059.45 785.04C1062.14 786.32 1063.48 788.16 1063.48 790.56C1063.48 792.992 1062.14 794.864 1059.45 796.176C1056.76 797.456 1053.02 798.096 1048.22 798.096C1043.45 798.096 1039.71 797.456 1036.99 796.176C1034.3 794.864 1032.95 792.992 1032.95 790.56C1032.95 788.16 1034.3 786.32 1036.99 785.04C1039.71 783.728 1043.45 783.072 1048.22 783.072ZM1048.22 786.048C1045.88 786.048 1043.88 786.224 1042.22 786.576C1040.55 786.928 1039.27 787.44 1038.38 788.112C1037.51 788.784 1037.08 789.6 1037.08 790.56C1037.08 791.52 1037.51 792.352 1038.38 793.056C1039.27 793.728 1040.55 794.24 1042.22 794.592C1043.88 794.912 1045.88 795.072 1048.22 795.072C1050.59 795.072 1052.6 794.912 1054.27 794.592C1055.93 794.24 1057.19 793.728 1058.06 793.056C1058.95 792.352 1059.4 791.52 1059.4 790.56C1059.4 789.6 1058.95 788.784 1058.06 788.112C1057.19 787.44 1055.93 786.928 1054.27 786.576C1052.6 786.224 1050.59 786.048 1048.22 786.048ZM1028.63 801.024H1067.85V804.24H1028.63V801.024ZM1033.39 807.936H1062.81V817.728H1037.37V822.96H1033.48V814.8H1058.92V811.008H1033.39V807.936ZM1033.48 822.144H1064.11V825.264H1033.48V822.144ZM1080.07 817.227L1079.8 819.068C1079.61 820.364 1079.31 821.75 1078.91 823.227C1078.53 824.705 1078.12 826.097 1077.7 827.403C1077.28 828.71 1076.94 829.75 1076.66 830.523H1073.6C1073.74 829.795 1073.94 828.835 1074.17 827.642C1074.41 826.449 1074.65 825.114 1074.89 823.636C1075.14 822.17 1075.35 820.67 1075.5 819.136L1075.71 817.227H1080.07ZM1110.45 788.544H1113.66V795.552C1113.66 797.824 1113.34 800.08 1112.7 802.32C1112.06 804.528 1111.17 806.624 1110.02 808.608C1108.9 810.56 1107.6 812.304 1106.13 813.84C1104.66 815.344 1103.07 816.528 1101.38 817.392L1099.02 814.224C1100.59 813.456 1102.05 812.416 1103.39 811.104C1104.77 809.76 1105.98 808.24 1107.04 806.544C1108.1 804.816 1108.93 803.024 1109.54 801.168C1110.14 799.28 1110.45 797.408 1110.45 795.552V788.544ZM1111.22 788.544H1114.38V795.552C1114.38 797.28 1114.66 799.024 1115.2 800.784C1115.78 802.544 1116.58 804.224 1117.6 805.824C1118.62 807.424 1119.81 808.864 1121.15 810.144C1122.53 811.392 1123.98 812.4 1125.52 813.168L1123.26 816.336C1121.57 815.472 1119.98 814.32 1118.51 812.88C1117.04 811.408 1115.76 809.744 1114.67 807.888C1113.58 806.032 1112.74 804.048 1112.13 801.936C1111.52 799.824 1111.22 797.696 1111.22 795.552V788.544ZM1100.56 786.768H1123.98V790.08H1100.56V786.768ZM1129.12 782.304H1133.1V825.744H1129.12V782.304ZM1132.19 799.824H1140.21V803.184H1132.19V799.824ZM1175.48 782.352H1179.47V814.176H1175.48V782.352ZM1151.58 821.52H1180.81V824.784H1151.58V821.52ZM1151.58 811.248H1155.56V823.056H1151.58V811.248ZM1155.18 784.752H1158.49V789.12C1158.49 791.968 1158 794.64 1157 797.136C1156.01 799.6 1154.6 801.776 1152.78 803.664C1150.99 805.52 1148.88 806.944 1146.44 807.936L1144.33 804.768C1146.54 803.904 1148.44 802.672 1150.04 801.072C1151.68 799.472 1152.94 797.648 1153.84 795.6C1154.73 793.52 1155.18 791.36 1155.18 789.12V784.752ZM1155.9 784.752H1159.21V789.12C1159.21 790.752 1159.47 792.336 1159.98 793.872C1160.49 795.376 1161.23 796.784 1162.19 798.096C1163.15 799.408 1164.28 800.576 1165.6 801.6C1166.94 802.592 1168.41 803.376 1170.01 803.952L1167.95 807.12C1165.55 806.192 1163.44 804.848 1161.61 803.088C1159.82 801.296 1158.41 799.216 1157.39 796.848C1156.4 794.448 1155.9 791.872 1155.9 789.12V784.752ZM1188.06 800.448H1227.32V803.664H1188.06V800.448ZM1193.29 793.728H1222.62V796.944H1193.29V793.728ZM1193.29 783.744H1222.18V786.96H1197.22V796.272H1193.29V783.744ZM1192.81 807.456H1222.23V817.632H1196.79V823.104H1192.9V814.656H1218.34V810.576H1192.81V807.456ZM1192.9 822.048H1223.53V825.216H1192.9V822.048ZM1246.28 785.472C1248.55 785.472 1250.55 785.904 1252.28 786.768C1254.04 787.6 1255.41 788.784 1256.4 790.32C1257.4 791.856 1257.89 793.648 1257.89 795.696C1257.89 797.712 1257.4 799.504 1256.4 801.072C1255.41 802.608 1254.04 803.808 1252.28 804.672C1250.55 805.504 1248.55 805.92 1246.28 805.92C1244.04 805.92 1242.04 805.504 1240.28 804.672C1238.52 803.808 1237.12 802.608 1236.1 801.072C1235.11 799.504 1234.61 797.712 1234.61 795.696C1234.61 793.648 1235.11 791.856 1236.1 790.32C1237.12 788.784 1238.52 787.6 1240.28 786.768C1242.04 785.904 1244.04 785.472 1246.28 785.472ZM1246.28 788.928C1244.8 788.928 1243.48 789.216 1242.29 789.792C1241.14 790.336 1240.23 791.12 1239.56 792.144C1238.88 793.168 1238.55 794.352 1238.55 795.696C1238.55 797.04 1238.88 798.224 1239.56 799.248C1240.23 800.272 1241.14 801.072 1242.29 801.648C1243.48 802.192 1244.8 802.464 1246.28 802.464C1247.78 802.464 1249.11 802.192 1250.26 801.648C1251.41 801.072 1252.32 800.272 1253 799.248C1253.67 798.224 1254 797.04 1254 795.696C1254 794.352 1253.67 793.168 1253 792.144C1252.32 791.12 1251.41 790.336 1250.26 789.792C1249.11 789.216 1247.78 788.928 1246.28 788.928ZM1263.6 782.304H1267.59V825.792H1263.6V782.304ZM1232.98 816.288L1232.45 812.928C1235.11 812.928 1238.02 812.912 1241.19 812.88C1244.36 812.816 1247.62 812.688 1250.98 812.496C1254.37 812.272 1257.64 811.92 1260.77 811.44L1261.11 814.368C1257.84 814.976 1254.53 815.424 1251.17 815.712C1247.84 815.968 1244.63 816.128 1241.52 816.192C1238.42 816.256 1235.57 816.288 1232.98 816.288ZM1289.82 804.336H1329.18V807.6H1289.82V804.336ZM1307.82 806.4H1311.85V816.384H1307.82V806.4ZM1294.86 821.472H1324.81V824.784H1294.86V821.472ZM1294.86 812.112H1298.84V822.384H1294.86V812.112ZM1309.45 783.408C1312.52 783.408 1315.2 783.76 1317.47 784.464C1319.74 785.168 1321.5 786.176 1322.75 787.488C1324.03 788.768 1324.67 790.32 1324.67 792.144C1324.67 793.904 1324.03 795.44 1322.75 796.752C1321.5 798.064 1319.74 799.072 1317.47 799.776C1315.2 800.48 1312.52 800.832 1309.45 800.832C1306.41 800.832 1303.74 800.48 1301.44 799.776C1299.16 799.072 1297.39 798.064 1296.11 796.752C1294.86 795.44 1294.24 793.904 1294.24 792.144C1294.24 790.32 1294.86 788.768 1296.11 787.488C1297.39 786.176 1299.16 785.168 1301.44 784.464C1303.74 783.76 1306.41 783.408 1309.45 783.408ZM1309.45 786.624C1307.28 786.624 1305.36 786.848 1303.69 787.296C1302.03 787.744 1300.73 788.384 1299.8 789.216C1298.91 790.016 1298.46 790.992 1298.46 792.144C1298.46 793.264 1298.91 794.24 1299.8 795.072C1300.73 795.872 1302.03 796.496 1303.69 796.944C1305.36 797.36 1307.28 797.568 1309.45 797.568C1311.69 797.568 1313.63 797.36 1315.26 796.944C1316.89 796.496 1318.16 795.872 1319.05 795.072C1319.98 794.24 1320.44 793.264 1320.44 792.144C1320.44 790.992 1319.98 790.016 1319.05 789.216C1318.16 788.384 1316.89 787.744 1315.26 787.296C1313.63 786.848 1311.69 786.624 1309.45 786.624ZM1354.71 789.36H1367.24V792.576H1354.71V789.36ZM1354.71 797.952H1367.34V801.216H1354.71V797.952ZM1365.75 782.304H1369.74V807.984H1365.75V782.304ZM1336.04 785.616H1355.82V804.912H1336.04V785.616ZM1351.93 788.832H1339.93V801.696H1351.93V788.832ZM1355.43 809.28C1359.91 809.28 1363.43 810 1365.99 811.44C1368.59 812.88 1369.88 814.896 1369.88 817.488C1369.88 820.08 1368.59 822.08 1365.99 823.488C1363.43 824.928 1359.91 825.648 1355.43 825.648C1350.95 825.648 1347.42 824.928 1344.83 823.488C1342.27 822.08 1340.99 820.08 1340.99 817.488C1340.99 814.896 1342.27 812.88 1344.83 811.44C1347.42 810 1350.95 809.28 1355.43 809.28ZM1355.43 812.4C1353.26 812.4 1351.39 812.608 1349.82 813.024C1348.25 813.408 1347.03 813.984 1346.17 814.752C1345.34 815.488 1344.92 816.4 1344.92 817.488C1344.92 818.512 1345.34 819.408 1346.17 820.176C1347.03 820.912 1348.25 821.488 1349.82 821.904C1351.39 822.32 1353.26 822.528 1355.43 822.528C1357.64 822.528 1359.51 822.32 1361.05 821.904C1362.62 821.488 1363.82 820.912 1364.65 820.176C1365.51 819.408 1365.95 818.512 1365.95 817.488C1365.95 816.4 1365.51 815.488 1364.65 814.752C1363.82 813.984 1362.62 813.408 1361.05 813.024C1359.51 812.608 1357.64 812.4 1355.43 812.4ZM1397.77 783.072C1402.57 783.072 1406.31 783.728 1409 785.04C1411.69 786.32 1413.03 788.16 1413.03 790.56C1413.03 792.992 1411.69 794.864 1409 796.176C1406.31 797.456 1402.57 798.096 1397.77 798.096C1393 798.096 1389.25 797.456 1386.53 796.176C1383.85 794.864 1382.5 792.992 1382.5 790.56C1382.5 788.16 1383.85 786.32 1386.53 785.04C1389.25 783.728 1393 783.072 1397.77 783.072ZM1397.77 786.048C1395.43 786.048 1393.43 786.224 1391.77 786.576C1390.1 786.928 1388.82 787.44 1387.93 788.112C1387.06 788.784 1386.63 789.6 1386.63 790.56C1386.63 791.52 1387.06 792.352 1387.93 793.056C1388.82 793.728 1390.1 794.24 1391.77 794.592C1393.43 794.912 1395.43 795.072 1397.77 795.072C1400.13 795.072 1402.15 794.912 1403.81 794.592C1405.48 794.24 1406.74 793.728 1407.61 793.056C1408.5 792.352 1408.95 791.52 1408.95 790.56C1408.95 789.6 1408.5 788.784 1407.61 788.112C1406.74 787.44 1405.48 786.928 1403.81 786.576C1402.15 786.224 1400.13 786.048 1397.77 786.048ZM1378.18 801.024H1417.4V804.24H1378.18V801.024ZM1382.93 807.936H1412.36V817.728H1386.92V822.96H1383.03V814.8H1408.47V811.008H1382.93V807.936ZM1383.03 822.144H1413.65V825.264H1383.03V822.144ZM732.841 846.544H736.105V853.552C736.105 855.856 735.785 858.128 735.145 860.368C734.505 862.576 733.609 864.672 732.457 866.656C731.337 868.608 730.025 870.336 728.521 871.84C727.017 873.344 725.401 874.528 723.673 875.392L721.369 872.224C722.937 871.456 724.409 870.416 725.785 869.104C727.193 867.792 728.425 866.288 729.481 864.592C730.537 862.896 731.353 861.104 731.929 859.216C732.537 857.328 732.841 855.44 732.841 853.552V846.544ZM733.657 846.544H736.873V853.552C736.873 855.376 737.161 857.2 737.737 859.024C738.345 860.816 739.177 862.512 740.233 864.112C741.321 865.68 742.553 867.072 743.929 868.288C745.337 869.504 746.841 870.464 748.441 871.168L746.233 874.336C744.473 873.504 742.825 872.384 741.289 870.976C739.753 869.568 738.409 867.952 737.257 866.128C736.137 864.272 735.257 862.288 734.617 860.176C733.977 858.032 733.657 855.824 733.657 853.552V846.544ZM722.761 844.768H747.001V848.08H722.761V844.768ZM752.905 840.304H756.889V883.744H752.905V840.304ZM785.973 852.448H797.877V855.712H785.973V852.448ZM785.493 864.064H797.397V867.328H785.493V864.064ZM783.573 844.816H787.413C787.413 847.952 787.093 851.008 786.453 853.984C785.845 856.96 784.789 859.808 783.285 862.528C781.813 865.248 779.813 867.792 777.285 870.16C774.789 872.528 771.621 874.672 767.781 876.592L765.573 873.52C768.901 871.824 771.717 869.952 774.021 867.904C776.325 865.856 778.181 863.648 779.589 861.28C780.997 858.912 782.005 856.4 782.613 853.744C783.253 851.056 783.573 848.224 783.573 845.248V844.816ZM767.877 844.816H785.973V848.08H767.877V844.816ZM783.333 855.568V858.64L766.389 860.224L765.669 856.768L783.333 855.568ZM797.253 840.256H801.189V883.696H797.253V840.256ZM841.985 857.632H849.953V860.944H841.985V857.632ZM839.057 840.304H843.041V883.696H839.057V840.304ZM811.409 844.576H815.345V871.456H811.409V844.576ZM811.409 869.392H814.865C818.033 869.392 821.281 869.248 824.609 868.96C827.969 868.672 831.441 868.16 835.025 867.424L835.505 870.784C831.793 871.52 828.241 872.032 824.849 872.32C821.489 872.576 818.161 872.704 814.865 872.704H811.409V869.392ZM883.55 840.304H887.534V862.384H883.55V840.304ZM886.43 850H893.918V853.36H886.43V850ZM871.454 842.416H875.822C875.822 846.064 874.99 849.296 873.326 852.112C871.694 854.896 869.342 857.232 866.27 859.12C863.23 861.008 859.614 862.464 855.422 863.488L853.886 860.176C857.662 859.344 860.846 858.16 863.438 856.624C866.062 855.088 868.046 853.296 869.39 851.248C870.766 849.2 871.454 846.96 871.454 844.528V842.416ZM855.806 842.416H873.806V845.68H855.806V842.416ZM859.934 864.352H887.534V875.152H863.966V881.872H860.078V872.08H883.598V867.568H859.934V864.352ZM860.078 880.096H889.07V883.312H860.078V880.096ZM929.062 841.84H932.566V844.288C932.566 845.952 932.246 847.52 931.606 848.992C930.966 850.432 930.086 851.76 928.966 852.976C927.878 854.192 926.598 855.28 925.126 856.24C923.654 857.2 922.054 858 920.326 858.64C918.63 859.28 916.886 859.744 915.094 860.032L913.462 856.816C915.062 856.592 916.614 856.208 918.118 855.664C919.654 855.12 921.078 854.464 922.39 853.696C923.702 852.896 924.854 852 925.846 851.008C926.87 850.016 927.654 848.96 928.198 847.84C928.774 846.688 929.062 845.504 929.062 844.288V841.84ZM929.734 841.84H933.19V844.288C933.19 845.504 933.478 846.672 934.054 847.792C934.63 848.912 935.414 849.968 936.406 850.96C937.43 851.952 938.598 852.848 939.91 853.648C941.222 854.448 942.63 855.12 944.134 855.664C945.67 856.208 947.222 856.592 948.79 856.816L947.206 860.032C945.414 859.744 943.67 859.28 941.974 858.64C940.278 857.968 938.678 857.152 937.174 856.192C935.702 855.232 934.406 854.144 933.286 852.928C932.198 851.712 931.334 850.384 930.694 848.944C930.054 847.472 929.734 845.92 929.734 844.288V841.84ZM929.062 867.232H932.998V883.744H929.062V867.232ZM911.494 864.736H950.71V868.048H911.494V864.736ZM979.95 867.04H983.07V869.344C983.07 871.232 982.686 873.088 981.918 874.912C981.15 876.736 980.03 878.368 978.558 879.808C977.118 881.248 975.342 882.352 973.23 883.12L971.262 880.192C973.086 879.52 974.638 878.592 975.918 877.408C977.23 876.224 978.222 874.944 978.894 873.568C979.598 872.16 979.95 870.752 979.95 869.344V867.04ZM980.862 867.04H983.79V869.344C983.79 870.816 984.078 872.272 984.654 873.712C985.23 875.152 986.094 876.464 987.246 877.648C988.43 878.832 989.87 879.776 991.566 880.48L989.934 883.504C987.822 882.672 986.094 881.52 984.75 880.048C983.438 878.576 982.462 876.912 981.822 875.056C981.182 873.168 980.862 871.264 980.862 869.344V867.04ZM996.03 867.04H998.958V869.344C998.958 871.04 998.622 872.816 997.95 874.672C997.31 876.528 996.318 878.256 994.974 879.856C993.662 881.424 991.982 882.64 989.934 883.504L988.206 880.48C989.934 879.68 991.374 878.656 992.526 877.408C993.678 876.128 994.542 874.784 995.118 873.376C995.726 871.936 996.03 870.592 996.03 869.344V867.04ZM996.798 867.04H999.918V869.344C999.918 870.848 1000.25 872.304 1000.93 873.712C1001.63 875.12 1002.62 876.4 1003.9 877.552C1005.21 878.672 1006.78 879.552 1008.61 880.192L1006.64 883.12C1004.53 882.352 1002.73 881.28 1001.26 879.904C999.79 878.496 998.67 876.896 997.902 875.104C997.166 873.28 996.798 871.36 996.798 869.344V867.04ZM1000.73 840.352H1004.72V865.12H1000.73V840.352ZM981.438 842.848C983.646 842.848 985.598 843.28 987.294 844.144C988.99 845.008 990.318 846.208 991.278 847.744C992.27 849.248 992.766 851.008 992.766 853.024C992.766 855.008 992.27 856.752 991.278 858.256C990.318 859.76 988.99 860.944 987.294 861.808C985.598 862.672 983.646 863.104 981.438 863.104C979.262 863.104 977.31 862.672 975.582 861.808C973.886 860.944 972.542 859.76 971.55 858.256C970.59 856.752 970.11 855.008 970.11 853.024C970.11 851.008 970.59 849.248 971.55 847.744C972.542 846.208 973.886 845.008 975.582 844.144C977.31 843.28 979.262 842.848 981.438 842.848ZM981.438 846.208C980.03 846.208 978.766 846.496 977.646 847.072C976.526 847.648 975.63 848.448 974.958 849.472C974.318 850.464 973.998 851.648 973.998 853.024C973.998 854.368 974.318 855.552 974.958 856.576C975.63 857.568 976.526 858.352 977.646 858.928C978.766 859.504 980.03 859.792 981.438 859.792C982.878 859.792 984.158 859.504 985.278 858.928C986.398 858.352 987.278 857.568 987.918 856.576C988.558 855.552 988.878 854.368 988.878 853.024C988.878 851.648 988.558 850.464 987.918 849.472C987.278 848.448 986.398 847.648 985.278 847.072C984.158 846.496 982.878 846.208 981.438 846.208ZM1032.89 841.072C1037.69 841.072 1041.43 841.728 1044.12 843.04C1046.81 844.32 1048.15 846.16 1048.15 848.56C1048.15 850.992 1046.81 852.864 1044.12 854.176C1041.43 855.456 1037.69 856.096 1032.89 856.096C1028.12 856.096 1024.38 855.456 1021.66 854.176C1018.97 852.864 1017.63 850.992 1017.63 848.56C1017.63 846.16 1018.97 844.32 1021.66 843.04C1024.38 841.728 1028.12 841.072 1032.89 841.072ZM1032.89 844.048C1030.55 844.048 1028.55 844.224 1026.89 844.576C1025.23 844.928 1023.95 845.44 1023.05 846.112C1022.19 846.784 1021.75 847.6 1021.75 848.56C1021.75 849.52 1022.19 850.352 1023.05 851.056C1023.95 851.728 1025.23 852.24 1026.89 852.592C1028.55 852.912 1030.55 853.072 1032.89 853.072C1035.26 853.072 1037.27 852.912 1038.94 852.592C1040.6 852.24 1041.87 851.728 1042.73 851.056C1043.63 850.352 1044.07 849.52 1044.07 848.56C1044.07 847.6 1043.63 846.784 1042.73 846.112C1041.87 845.44 1040.6 844.928 1038.94 844.576C1037.27 844.224 1035.26 844.048 1032.89 844.048ZM1013.31 859.024H1052.52V862.24H1013.31V859.024ZM1018.06 865.936H1047.48V875.728H1022.04V880.96H1018.15V872.8H1043.59V869.008H1018.06V865.936ZM1018.15 880.144H1048.78V883.264H1018.15V880.144ZM1102.69 840.352H1106.67V869.68H1102.69V840.352ZM1093.38 852.544H1103.51V855.856H1093.38V852.544ZM1089.01 843.76H1093.19C1093.19 847.472 1092.4 850.832 1090.83 853.84C1089.27 856.816 1086.99 859.408 1084.02 861.616C1081.07 863.824 1077.54 865.6 1073.41 866.944L1071.68 863.776C1075.36 862.624 1078.48 861.152 1081.04 859.36C1083.63 857.568 1085.6 855.488 1086.95 853.12C1088.32 850.752 1089.01 848.144 1089.01 845.296V843.76ZM1073.79 843.76H1091.84V847.024H1073.79V843.76ZM1090.69 865.984H1094.1V867.952C1094.1 870 1093.65 871.904 1092.75 873.664C1091.89 875.392 1090.69 876.928 1089.15 878.272C1087.65 879.584 1085.92 880.688 1083.97 881.584C1082.02 882.512 1079.95 883.184 1077.78 883.6L1076.19 880.432C1078.11 880.112 1079.94 879.584 1081.67 878.848C1083.43 878.08 1084.98 877.152 1086.32 876.064C1087.67 874.976 1088.72 873.744 1089.49 872.368C1090.29 870.992 1090.69 869.52 1090.69 867.952V865.984ZM1091.22 865.984H1094.63V867.952C1094.63 869.488 1095.01 870.944 1095.78 872.32C1096.55 873.664 1097.6 874.88 1098.95 875.968C1100.29 877.056 1101.83 877.968 1103.55 878.704C1105.31 879.44 1107.14 879.984 1109.03 880.336L1107.39 883.504C1105.22 883.088 1103.15 882.432 1101.2 881.536C1099.28 880.64 1097.57 879.536 1096.07 878.224C1094.56 876.88 1093.38 875.344 1092.51 873.616C1091.65 871.888 1091.22 870 1091.22 867.952V865.984ZM1146.7 840.352H1150.69V872.032H1146.7V840.352ZM1122.8 879.52H1152.03V882.784H1122.8V879.52ZM1122.8 868.816H1126.78V880.624H1122.8V868.816ZM1127.41 843.376C1129.58 843.376 1131.52 843.824 1133.21 844.72C1134.91 845.616 1136.25 846.88 1137.25 848.512C1138.24 850.112 1138.73 851.952 1138.73 854.032C1138.73 856.112 1138.24 857.968 1137.25 859.6C1136.25 861.2 1134.91 862.464 1133.21 863.392C1131.52 864.288 1129.58 864.736 1127.41 864.736C1125.26 864.736 1123.33 864.288 1121.6 863.392C1119.9 862.464 1118.56 861.2 1117.57 859.6C1116.57 857.968 1116.08 856.112 1116.08 854.032C1116.08 851.952 1116.57 850.112 1117.57 848.512C1118.56 846.88 1119.9 845.616 1121.6 844.72C1123.33 843.824 1125.26 843.376 1127.41 843.376ZM1127.41 846.832C1126 846.832 1124.73 847.136 1123.61 847.744C1122.49 848.352 1121.6 849.2 1120.93 850.288C1120.29 851.376 1119.97 852.624 1119.97 854.032C1119.97 855.472 1120.29 856.736 1120.93 857.824C1121.6 858.88 1122.49 859.712 1123.61 860.32C1124.73 860.928 1126 861.232 1127.41 861.232C1128.81 861.232 1130.08 860.928 1131.2 860.32C1132.35 859.712 1133.25 858.88 1133.89 857.824C1134.53 856.736 1134.85 855.472 1134.85 854.032C1134.85 852.624 1134.53 851.376 1133.89 850.288C1133.25 849.2 1132.35 848.352 1131.2 847.744C1130.08 847.136 1128.81 846.832 1127.41 846.832ZM1188.65 840.304H1192.64V883.696H1188.65V840.304ZM1191.58 857.92H1199.55V861.232H1191.58V857.92ZM1177.56 844.96H1181.45C1181.45 849.088 1180.78 853.04 1179.44 856.816C1178.09 860.56 1175.98 864.032 1173.1 867.232C1170.22 870.4 1166.43 873.152 1161.72 875.488L1159.52 872.416C1163.55 870.4 1166.89 868.048 1169.55 865.36C1172.24 862.64 1174.24 859.632 1175.55 856.336C1176.89 853.008 1177.56 849.424 1177.56 845.584V844.96ZM1161.53 844.96H1179.58V848.272H1161.53V844.96Z" fill="white"/>
</svg>
